PathFileType	4	(X/Y/Z)	RBDS020\RBDS020runT25.trc
DataRate	CameraRate	NumFrames	NumMarkers	Units	OrigDataRate	OrigDataStartFrame	OrigNumFrames
150.000000	150.000000	4	33	mm	150.000000	2250	4500
Frame#	Time	L.ASIS			L.Heel.Bottom			L.Heel.Lateral			L.Heel.Top			L.Iliac.Crest			L.MT1			L.MT5			L.PSIS			L.Shank.Bottom.Lateral			L.Shank.Bottom.Medial			L.Shank.Top.Lateral			L.Shank.Top.Medial			L.Thigh.Bottom.Lateral			L.Thigh.Bottom.Medial			L.Thigh.Top.Lateral			L.Thigh.Top.Medial			R.ASIS			R.ASY			R.Heel.Bottom			R.Heel.Lateral			R.Heel.Top			R.Iliac.Crest			R.MT1			R.MT5			R.PSIS			R.Shank.Bottom.Lateral			R.Shank.Bottom.Medial			R.Shank.Top.Lateral			R.Shank.Top.Medial			R.Thigh.Bottom.Lateral			R.Thigh.Bottom.Medial			R.Thigh.Top.Lateral			R.Thigh.Top.Medial			
		X1	Y1	Z1	X2	Y2	Z2	X3	Y3	Z3	X4	Y4	Z4	X5	Y5	Z5	X6	Y6	Z6	X7	Y7	Z7	X8	Y8	Z8	X9	Y9	Z9	X10	Y10	Z10	X11	Y11	Z11	X12	Y12	Z12	X13	Y13	Z13	X14	Y14	Z14	X15	Y15	Z15	X16	Y16	Z16	X17	Y17	Z17	X18	Y18	Z18	X19	Y19	Z19	X20	Y20	Z20	X21	Y21	Z21	X22	Y22	Z22	X23	Y23	Z23	X24	Y24	Z24	X25	Y25	Z25	X26	Y26	Z26	X27	Y27	Z27	X28	Y28	Z28	X29	Y29	Z29	X30	Y30	Z30	X31	Y31	Z31	X32	Y32	Z32	X33	Y33	Z33	

2251	15	2262.493293651446	1013.837811340424	922.0576242891439	1699.127479687379	305.5241820805359	986.2325278720388	1716.489653554356	285.2949729495641	939.8153712512304	1746.462993968154	305.9226276894598	978.6532757147118	2211.803932287399	1067.500514498187	891.1631829321504	1768.591165591241	95.84769047267234	1008.160203846414	1728.77886828184	125.6624838425615	909.3947910165344	2102.690295772907	1054.238272429981	984.9413196851614	1829.126058768878	294.726653641303	910.0298531408893	1810.013818207578	324.6302709978406	953.1163179348806	1885.687252106226	350.5961876942772	897.7085617683897	1867.883110204348	380.0178898034327	939.0965038676279	2152.088074057813	662.6609153720576	864.8227639862399	2087.609517027955	668.7313840141298	898.4451753030255	2155.399477241245	771.5103296440776	853.2704431037354	2095.299298426352	777.510873417547	888.7680252330604	2255.082666692973	1016.538668599785	1152.118691384185	2434.140071964205	88.87722782384668	1096.313756027081	2248.979094416586	27.0549552606218	1078.717582202934	2272.836714618712	43.15613379859773	1124.116411531098	2255.169608677367	69.43215424848864	1080.131893861909	2196.556910596235	1062.012870673203	1188.480573741931	2460.171962076636	55.10538641197994	1049.372424894408	2435.904891611606	40.40303805041835	1156.835913736999	2099.263143392734	1052.978528451299	1084.335305016449	2319.841045227167	183.0859170687387	1148.441248901574	2277.558006402632	189.4792576485741	1119.881693415236	2317.80385723723	266.0236864257397	1166.44572274673	2272.247297492215	267.9562656920706	1138.160637060456	2262.497832433889	634.3490920392179	1186.738441162537	2211.283733232603	614.1290841916909	1141.389267186686	2213.18185893402	733.21140003379	1196.548244134786	2165.634891251655	713.9244497641741	1151.870996474994	
2252	15.00666666666667	2261.876560530891	1009.753747090287	922.4817275971025	1705.174998708052	311.2227188582226	986.7372568445502	1721.522996728529	290.5698687307955	940.1322627506582	1752.505214090729	310.3433423276508	978.7651106598737	2210.962109294924	1062.522547144979	891.1619460512945	1769.663241676883	99.41306128729362	1007.253796816898	1729.348020799355	130.4797369516221	909.0732405379939	2101.578014417402	1048.210802315157	985.0556319331574	1834.359664653721	297.1029990541002	909.5770000895452	1816.324593792257	327.3431657973176	952.9403233566894	1892.49746093401	351.3475598929506	897.3143904985521	1875.812914275777	381.0453216089987	939.00979330905	2158.553038622139	656.8883479068683	864.6115474113334	2093.947302013412	661.2316577927749	898.280398055124	2159.229772320841	765.8705868191901	853.5547173227886	2098.97471256961	770.1855724008245	889.0233402103576	2253.907942910406	1012.603045167878	1153.346875038577	2418.894086256071	85.97689232691343	1094.973102931223	2232.618624318649	27.06038534915549	1078.217974868012	2256.703404759613	43.38692020603578	1123.427785462734	2239.593828610582	69.42032076691864	1079.022436997929	2195.327199605714	1057.105109452794	1189.13093245561	2444.73818388574	51.56440990022459	1048.676998485462	2419.901446673738	38.81120917079762	1156.548118674111	2097.772238325245	1047.364357942492	1084.266579614186	2308.976555707135	180.9258944471364	1147.118945192886	2266.761308322556	189.1354043162095	1118.895688390102	2310.246562242342	263.7580023777272	1165.557600601132	2264.674001390708	267.6553945549426	1137.547616348114	2263.592165954703	631.1758799503405	1186.817774200093	2212.164518048164	610.6013644378974	1141.845017826987	2213.720800513812	729.7567265987125	1196.901206366647	2165.963034769761	710.1219433907587	1152.580499403535	
2253	15.01333333333333	2260.92638651981	1005.55245993624	922.7339430295611	1711.487491885671	316.0244662327993	987.1756014330221	1727.143832115937	295.2230946622627	940.3915043319934	1758.772886305765	314.3568335657708	978.8829685647117	2209.736810196731	1057.2604311706	891.0855175003144	1772.849436672128	102.9626848019826	1006.258532081128	1732.105250223572	135.0402215603919	908.5736631323086	2100.091673080662	1041.950681492706	985.2419864940456	1840.530096244374	299.4577770263264	909.150771595357	1823.483336381224	330.0542899531553	952.7095599270838	1900.144940824595	352.0930219499983	896.913383400434	1884.511013913543	382.0750845271878	938.8444486439015	2165.178945932896	651.2925593837747	864.3910043918077	2100.497422006572	653.8266854362088	898.1111077434474	2163.115911624943	760.3372340346035	853.8831353348186	2102.756258004801	762.8985548274682	889.3330094545994	2252.612270727066	1008.587206087483	1154.457746464161	2402.909831075795	83.78732318269516	1093.838091426685	2215.788493377189	27.14831980321983	1077.9166578706	2240.084793873201	43.67070260145798	1122.958597047262	2223.375847232942	69.49099725236553	1078.241009097072	2193.989412500546	1051.960846030755	1189.729857462946	2428.604293166807	49.00879797803793	1048.112239229123	2403.409687832775	37.77654149786808	1156.297689330178	2096.027497348629	1041.540651669326	1084.194928751223	2297.610135748402	179.1754814068275	1146.053582855173	2255.477275012012	189.2678626700311	1118.238702270953	2302.351769004475	261.7972361503008	1164.889922619555	2256.78677580454	267.7373719174114	1137.260859096419	2264.505855483339	628.016970716359	1187.13252403383	2212.959894320462	607.1164775902199	1142.412095619778	2214.080169383112	726.3108618023621	1197.434404078611	2166.202114023685	706.3535477615106	1153.368333189118	
2254	15.02	2259.646734229809	1001.311130768292	922.8196287306561	1718.032555547417	319.927225397638	987.4874239651261	1733.355067069673	299.2336200683483	940.544767997984	1765.261175118953	317.9513928983497	978.983214400718	2208.079129523235	1051.796541236669	890.9280988288421	1778.098190563632	106.4006488374378	1005.183936102034	1737.070244857242	139.2348142429682	907.8745415154126	2098.249920026703	1035.5916758987	985.4768338863414	1847.626223476374	301.762165052013	908.7626839121725	1831.463135724033	332.7329535814013	952.434823909334	1908.594099956623	352.8424160549307	896.5213233809076	1893.924744637264	383.1151701091497	938.6148110873733	2171.926685354217	645.9916832217394	864.1799089101806	2107.214348769178	646.648900846855	897.9335842865631	2167.038723056896	755.0164447010417	854.2601851920493	2106.61724773358	755.7736387757454	889.6802790147686	2251.227235911338	1004.592889572544	1155.423817649868	2386.477251349297	82.277122787257	1092.973293946544	2198.76543243044	27.30572211174947	1077.796355677753	2223.243547500274	43.97910310311376	1122.701923166042	2206.793348895764	69.63176886276597	1077.779475824978	2192.530000412259	1046.679225816342	1190.259711289164	2412.051293944485	47.39759083982438	1047.730256188139	2386.67560173236	37.23284386148366	1156.126933865397	2094.050590483509	1035.635334941627	1084.102843774199	2285.898299325368	177.8075430551909	1145.296120307431	2243.8669067707	189.7957158365772	1117.951797265488	2294.174527114279	260.1057479737999	1164.478652108065	2248.648989407193	268.104033880184	1137.329582286735	2265.073141461914	624.9002709417192	1187.672133663638	2213.49906839184	603.7374943304601	1143.069043896566	2214.156275860776	722.9354401931596	1198.126712370653	2166.244240126431	702.7127450320675	1154.203999066292	
